# xmcd
#
# Track frame offsets:
#	150
#	4544
#	14216
#	16172
#	27450
#	33514
#	46367
#	48688
#	58034
#	58909
#	71223
#	73956
#	88687
#	95455
#	113688
#	114675
#	121893
#	134124
#	139516
#	159619
#	161643
#	169409
#	173005
#	182913
#	183389
#	194255
#	202893
#	210852
#	213621
#	225670
#	228997
#	245206
#	247054
#	258701
#	278426
#	280119
#	319065
#	340909
#	342568
#
# Disc length: 4745 seconds
#
# Revision: 1
# Processed by: cddbd v1.5.1PL0 Copyright (c) Steve Scherf et al.
# Submitted via: dBpowerAMP V4.0
#
DISCID=5a128727
DTITLE=Jacek Kaczmarski - Chicago Live '83
DYEAR=1983
DGENRE=Ballad
TTITLE0=Zapowiedz
TTITLE1=Modlitwa o wschodzie slonca
TTITLE2=Zapowiedz
TTITLE3=Kasandra
TTITLE4=Zapowiedz
TTITLE5=Rejtan, czyli raport ambasadora
TTITLE6=Zapowiedz
TTITLE7=Sen Katarzyny II
TTITLE8=Zapowiedz
TTITLE9=Oblawa
TTITLE10=Zapowiedz
TTITLE11=Listy
TTITLE12=Zapowiedz
TTITLE13=Epitafium dla Brunona Jasienskiego
TTITLE14=Zapowiedz
TTITLE15=Przyjaciele
TTITLE16=Mlody las
TTITLE17=Zapowiedz
TTITLE18=Swiadkowie
TTITLE19=Zapowiedz
TTITLE20=Czerwony autobus
TTITLE21=Zapowiedz
TTITLE22=Marsz intelektualistow
TTITLE23=Zapowiedz
TTITLE24=Koncert fortepianowy
TTITLE25=Zapowiedz
TTITLE26=Swiadectwo
TTITLE27=Zapowiedz
TTITLE28=Artysci
TTITLE29=Zapowiedz
TTITLE30=Kolysanka
TTITLE31=Zapowiedz
TTITLE32=Ballada pozytywna
TTITLE33=Zbroja
TTITLE34=Zapowiedz
TTITLE35=Epitafium dla Wysockiego
TTITLE36=Mury
TTITLE37=Zapowiedz
TTITLE38=Spotkanie w porcie
EXTD=
EXTT0=
EXTT1=
EXTT2=
EXTT3=
EXTT4=
EXTT5=
EXTT6=
EXTT7=
EXTT8=
EXTT9=
EXTT10=
EXTT11=
EXTT12=
EXTT13=
EXTT14=
EXTT15=
EXTT16=
EXTT17=
EXTT18=
EXTT19=
EXTT20=
EXTT21=
EXTT22=
EXTT23=
EXTT24=
EXTT25=
EXTT26=
EXTT27=
EXTT28=
EXTT29=
EXTT30=
EXTT31=
EXTT32=
EXTT33=
EXTT34=
EXTT35=
EXTT36=
EXTT37=
EXTT38=
PLAYORDER=
